<?xml version="1.0" encoding="UTF-8" standalone="no"?>
<svg
   xmlns:svg="http://www.w3.org/2000/svg"
   xmlns="http://www.w3.org/2000/svg"
   viewBox="0 0 299.15467 182.6116">
  <path
     style="fill:#DD4444;stroke:none"
     d="m 102.10449,111.46124 v 69.88689 l 4.22177,-0.45467 c 8.7142,-0.90928 20.02643,-4.61149 25.54724,-8.31367 17.21193,-11.56119 27.38754,-27.27926 31.23045,-48.19338 1.13663,-6.23526 1.08252,-19.29034 -0.10821,-25.980262 C 157.52902,67.294786 134.63391,44.756903 105.785,41.964022 l -3.68051,-0.324751 z" />
  <path
     style="fill:#DD4444;stroke:none"
     d="M 52.09776,43.587791 C 20.759075,46.900276 -2.3525367,80.025117 0.1913615,117.89134 2.5187622,151.92549 25.522117,178.75011 54.154538,180.76359 l 3.355792,0.19491 v -14.48398 l -0.151713,-9.24561 -3.028253,-1.031 -3.377332,-1.19752 -2.953016,-1.82174 -2.946323,-2.03223 c 0,0 -10.49259,-8.31396 -15.255653,-19.94012 -2.92278,-7.14458 -3.842911,-12.47053 -3.518158,-21.10896 0.270625,-8.31367 2.002649,-15.068545 5.412549,-21.23886 5.520807,-9.937452 11.556538,-16.221988 21.77006,-18.726846 L 58.051579,69.006164 57.943361,57.68216 C 57.835144,48.783916 57.56448,43.263111 57.239726,43.198161 c -0.270624,-0.06496 -2.598027,0.06496 -5.141925,0.389703 z" />
  <path
     style="fill:#DD4444;stroke:none"
     d="m 70.40647,45.858406 -3.611566,0.249679 0.380166,65.664965 c 0.190143,36.14068 0.380166,65.0043 0.443531,65.06673 8.466912,-0.42274 16.028161,-0.17071 25.914651,-0.14394 l -0.38016,-40.76656 c -0.25346,-23.53205 -0.44353,-53.493236 -0.44353,-66.663683 V 45.421474 l -9.31408,0.124845 c -5.195598,0.06244 -11.024818,0.18727 -12.989012,0.312096 z" />
  <path
     style="fill:#338FAD;stroke:none"
     d="M 88.596169,0.77845462 C 78.62384,2.9745149 69.663457,11.119742 66.884579,20.468048 65.607998,24.799153 65.257917,31.65023 66.16411,33.950327 c 0.68344,1.7663 0.803174,1.810678 4.741852,1.890412 C 88.525495,36.320061 102.81662,21.418132 101.2327,4.2680909 100.87226,0.36535858 100.80475,0.26071905 99.28897,0.12352607 95.793666,-0.16346465 91.708405,0.04752517 88.596169,0.77845462 Z" />
  <path
     style="fill:#DD4444;stroke:none"
     d="m 170.65173,113.52082 v 68.23226 h 29.11686 29.11682 v -9.88874 -9.88873 h -16.20653 -16.20654 v -19.44786 -19.44786 h 14.83311 14.8331 v -9.55907 -9.55913 h -14.8331 -14.83311 V 84.513837 65.065984 h 5.10917 c 2.74689,0 9.66899,-0.197763 15.38249,-0.461476 l 10.27329,-0.395551 v -9.493188 -9.427265 h -28.29278 -28.29278 z" />
  <path
     style="fill:#DD4444;stroke:none"
     d="m 235.8118,81.344032 c -0.21976,19.843408 -0.38456,50.564398 -0.38456,68.232278 v 32.17136 h 12.08623 12.08624 l 0.10983,-18.45896 0.16486,-18.39307 13.67941,19.05231 c 8.29556,11.60278 13.89918,18.92044 14.28374,18.65676 1.48331,-1.05482 11.31711,-11.60281 11.31711,-12.13019 0,-0.32964 -7.41654,-10.94354 -16.53615,-23.60114 -9.0647,-12.65759 -16.53618,-23.27149 -16.48124,-23.53519 0,-0.2637 2.19749,-1.45036 4.83449,-2.57109 10.93255,-4.68063 18.3491,-13.38273 21.64535,-25.512907 1.9228,-6.988043 1.81294,-16.81086 -0.16487,-23.007803 -3.29625,-10.152439 -8.79001,-17.470106 -16.701,-22.2167 -6.37272,-3.823645 -8.46035,-4.219195 -24.72185,-4.54882 l -14.88803,-0.329624 z" />

</svg>
