<?xml version="1.0" encoding="UTF-8" standalone="no"?>
<svg
   xmlns:dc="http://purl.org/dc/elements/1.1/"
   xmlns:cc="http://creativecommons.org/ns#"
   xmlns:rdf="http://www.w3.org/1999/02/22-rdf-syntax-ns#"
   xmlns:svg="http://www.w3.org/2000/svg"
   xmlns="http://www.w3.org/2000/svg"
   xmlns:sodipodi="http://sodipodi.sourceforge.net/DTD/sodipodi-0.dtd"
   xmlns:inkscape="http://www.inkscape.org/namespaces/inkscape"
   id="svg1947"
   version="1.1"
   viewBox="0 0 1680 357">
  <metadata
     id="metadata1953">
    <rdf:RDF>
      <cc:Work
         rdf:about="">
        <dc:format>image/svg+xml</dc:format>
        <dc:type
           rdf:resource="http://purl.org/dc/dcmitype/StillImage" />
        <dc:title></dc:title>
      </cc:Work>
    </rdf:RDF>
  </metadata>
  <defs
     id="defs1951" />
  <g
     id="g1945"
     stroke="none"
     fill="#44d2ca">
    <path
       id="path2"
       d="m 120.93149,1.5168642 c -0.87313,0.1322917 -2.59292,0.3439587 -3.83646,0.5027087 -2.56646,0.3174997 -8.81062,2.0372908 -9.65729,2.6458315 -0.13229,0.1058341 -0.74083,0.3439587 -1.32292,0.5291667 -1.24354,0.3968747 -3.88937,1.7197912 -5.02709,2.4870815 -0.42334,0.3174997 -1.217092,0.7672918 -1.719792,1.0583334 -0.50271,0.2645831 -1.29646,0.7937498 -1.77271,1.1906244 -0.449787,0.3704156 -1.402287,1.1112496 -2.090207,1.6139576 -2.16958,1.5875 -6.032497,5.55625 -8.149167,8.387291 -1.111247,1.481667 -2.010827,2.778125 -2.010827,2.883959 0,0.07937 -0.37042,0.687916 -0.79375,1.349375 -1.48167,2.169583 -3.386667,6.561666 -4.365627,10.001249 -0.26458,0.873125 -0.635,2.037292 -0.8202,2.592917 -0.21167,0.529167 -0.37042,1.322917 -0.37042,1.719792 0,0.396875 -0.18521,1.613958 -0.42333,2.69875 -0.60855,2.751666 -0.60855,9.921875 -0.0265,12.964583 0.23812,1.243542 0.47625,2.672293 0.52916,3.175001 0.0794,0.502708 0.23813,1.270001 0.39688,1.719793 0.15875,0.423333 0.55562,1.693334 0.87312,2.778126 1.455207,4.921254 3.201457,8.307921 6.826244,13.308549 4.18042,5.767918 10.159997,10.82146 16.695216,14.128751 0.9525,0.47625 1.85209,0.873125 1.98438,0.873125 0.15875,0 1.11125,0.343959 2.11667,0.767292 1.03187,0.423333 2.61937,0.978958 3.57187,1.217083 0.9525,0.238125 1.98438,0.555625 2.30188,0.687917 0.8202,0.3175 8.54604,1.296458 10.21291,1.296458 1.95792,0 3.09563,0.820209 4.1275,3.042709 0.44979,0.9525 0.82021,1.878541 0.82021,2.06375 0,0.185208 0.10583,0.449791 0.23813,0.582083 0.13229,0.15875 0.68791,1.375839 1.21708,2.725229 1.50812,3.81002 1.45521,3.91585 -4.36563,8.25504 -3.3602,2.51356 -7.96395,6.64108 -9.97479,8.94296 -1.00541,1.13772 -2.27541,2.59294 -2.83104,3.22794 -0.55562,0.66147 -2.2225,2.77814 -3.67771,4.70961 -1.69333,2.24897 -2.8575,3.54544 -3.25437,3.65127 -1.16417,0.29104 -2.61938,-0.0794 -6.693972,-1.77272 -4.868337,-2.01084 -5.344587,-2.48709 -5.609167,-5.23878 -0.97896,-10.26589 -2.592917,-15.98092 -6.270617,-22.38388 C 85.133317,97.269579 81.03228,92.374788 77.2752,89.358538 c -2.672287,-2.143125 -4.074587,-3.201459 -4.259787,-3.201459 -0.0794,0 -0.7673,-0.396875 -1.50813,-0.899583 -1.693327,-1.11125 -4.206867,-2.38125 -5.609167,-2.831042 -0.582077,-0.185208 -1.190617,-0.423333 -1.322907,-0.529166 -1.29646,-0.926042 -8.334377,-2.592917 -12.699994,-3.042709 -6.614587,-0.661458 -15.663331,0.608542 -20.902078,2.936875 -0.42333,0.185209 -1.56104,0.661459 -2.513537,1.058334 -6.244157,2.513541 -14.869574,9.816041 -18.8647822,15.954375 -3.2808267,5.000637 -3.0956167,4.709597 -4.4449967,8.122747 -0.55562,1.45522 -1.13771,2.85752 -1.29646,3.09564 -0.13229,0.26459 -0.26458,0.68792 -0.26458,0.92604 0,0.2646 -0.23813,1.19064 -0.50271,2.09023 -0.29104,0.89959 -0.7143701,2.96335 -0.9260401,4.63023 -0.2381167,1.66689 -0.5556167,3.94231 -0.7143668,5.08003 -0.23813,1.50814 -0.23813,2.59293 -0.0265,3.96877 0.1587501,1.05834 0.4497901,3.09565 0.6085401,4.55086 0.1587467,1.45522 0.5820768,3.62482 0.9260368,4.84191 0.34396,1.19062 0.635,2.3548 0.635,2.56647 0,0.34396 0.52917,1.74626 1.08479,2.85752 0.13229,0.23812 0.52917,1.19062 0.87313,2.11667 1.9314567,5.08003 7.8051949,12.96466 12.1972849,16.32489 0.740827,0.55563 1.957907,1.50813 2.751657,2.14313 1.77271,1.34939 6.085417,3.91586 7.699377,4.57732 0.661457,0.26459 1.561037,0.635 1.984367,0.82021 3.51896,1.48167 6.879167,2.35479 11.826874,3.04271 2.06375,0.29104 4.656667,0.52917 5.767917,0.52917 4.550827,0 13.758321,-1.82563 16.748111,-3.33375 0.71438,-0.34396 1.428747,-0.635 1.587497,-0.635 0.42333,0 3.43958,-1.5346 4.868327,-2.46064 0.635,-0.39687 1.19063,-0.71438 1.27,-0.71438 0.34396,0 5.635627,-4.12752 7.170207,-5.58274 1.32292,-1.24355 1.82563,-1.5346 2.804587,-1.69335 1.21708,-0.1852 2.75166,0 3.25437,0.39688 0.15875,0.1323 1.508127,0.71438 3.042707,1.32293 1.53458,0.60855 3.20146,1.29646 3.704167,1.50813 1.79916,0.74084 2.2225,2.43418 1.4552,6.03254 -0.21166,1.00542 -0.39687,2.51354 -0.39687,3.30729 0,0.79375 -0.18521,2.38125 -0.39688,3.51896 -0.52916,2.75167 -0.52916,9.525 0,12.27667 0.21167,1.13771 0.39688,2.77812 0.39688,3.65125 0,0.87312 0.18521,2.30187 0.39687,3.175 0.79375,3.28083 0.26459,5.90021 -1.27,6.37646 -0.3175,0.0794 -1.164157,0.42333 -1.904997,0.76729 -3.6777,1.64041 -6.588117,2.77812 -7.117287,2.77812 -1.16416,0 -2.407707,-0.60854 -3.598327,-1.71979 -2.88396,-2.75167 -8.202077,-6.48229 -11.244784,-7.91104 -1.69334,-0.79375 -4.365627,-1.85208 -6.217707,-2.43417 -0.79375,-0.23812 -1.93146,-0.60854 -2.513537,-0.79375 -2.01084,-0.66146 -9.181037,-1.69333 -11.800414,-1.69333 -3.06917,0 -8.704787,0.82021 -12.673534,1.87854 -1.693327,0.44979 -7.328954,2.61938 -8.466664,3.25438 -3.836457,2.14312 -4.709577,2.69875 -5.291657,3.20145 -0.37042,0.3175 -1.13771,0.89959 -1.69334,1.27 -2.513537,1.66688 -6.773327,5.97959 -9.154575,9.31334 -2.0637502,2.88396 -5.0270769,7.9375 -5.0270769,8.59896 0,0.15875 -0.26459,0.92604 -0.60854,1.66687 -0.82021,1.85208 -1.27001,3.04271 -1.48167,4.15396 -0.10584,0.50271 -0.34396,1.34937 -0.50271,1.85208 -0.5820801,1.82563 -1.4816668,8.44021 -1.4816668,10.98021 0,4.02167 1.0583368,10.42458 2.4077068,14.41979 1.74625,5.15938 3.3602067,8.33438 6.6939569,13.07042 3.280828,4.68312 8.334365,9.20751 14.022912,12.56772 2.54,1.50812 3.14854,1.79916 6.429367,3.06916 4.947707,1.905 12.064994,3.3073 16.721661,3.3073 2.275407,0 8.916454,-0.92605 11.244784,-1.56105 3.333747,-0.89958 4.683117,-1.37583 8.334364,-2.88395 1.69334,-0.68792 6.138337,-3.41313 8.440207,-5.15938 7.540624,-5.71501 13.731871,-14.7373 16.166028,-23.46855 0.26459,-0.9525 0.635,-2.2225 0.82021,-2.8575 0.21167,-0.60854 0.37042,-1.50813 0.37042,-1.98438 0,-0.47625 0.10583,-1.27 0.23812,-1.7727 0.15875,-0.50271 0.39688,-2.54 0.55563,-4.49792 0.42333,-4.78896 0.29104,-4.65667 5.979579,-7.09083 4.20689,-1.79917 5.31814,-2.09021 6.58814,-1.74625 0.29104,0.0794 1.66687,1.64041 3.04271,3.46604 5.90021,7.83166 9.76312,11.72104 17.64771,17.70062 5.15937,3.94229 5.05354,3.57188 2.59291,9.525 -0.52916,1.29646 -1.11125,2.69875 -1.32291,3.14854 -0.18521,0.42334 -0.42334,1.00542 -0.50271,1.24355 -0.0794,0.26458 -0.635,0.8202 -1.24354,1.27 -0.92605,0.66145 -1.37584,0.79375 -2.56646,0.79375 -2.16959,0 -8.83709,1.00541 -11.56229,1.74625 -2.80459,0.7673 -4.31271,1.34938 -7.9375,3.01626 -5.741472,2.64583 -11.906269,7.54062 -15.689806,12.43541 -0.74083,0.9525 -1.61396,2.06375 -1.95791,2.48709 -0.661457,0.87312 -3.042707,4.84187 -3.704167,6.24416 -2.407707,5.05354 -3.915827,10.55688 -4.497917,16.27188 -0.37041,3.75708 -0.37041,4.445 -0.0265,7.9375 0.39688,3.91583 0.82021,5.95312 2.11667,10.37166 0.661457,2.2225 3.095617,7.59355 4.180417,9.23396 0.5027,0.79375 0.92604,1.48167 0.92604,1.5875 0,0.44979 4.180407,5.55625 6.111864,7.48771 3.88938,3.88938 9.445639,7.77875 13.308559,9.33979 1.03187,0.42334 2.24896,0.92604 2.67229,1.11125 2.09021,0.97896 5.97958,1.95792 9.12812,2.32834 3.175,0.37041 11.80042,0.37041 15.08125,0 3.09563,-0.34396 7.83167,-1.53459 9.44563,-2.40771 0.26458,-0.13229 1.24354,-0.55563 2.19604,-0.9525 3.91583,-1.5875 10.53042,-6.21771 13.89063,-9.71021 5.10645,-5.29167 9.36625,-12.54125 11.08604,-18.86479 0.23812,-0.87313 0.55562,-1.95792 0.68791,-2.38125 1.5875,-5.18584 1.5875,-15.71625 -0.0264,-22.06625 -1.0848,-4.31271 -3.28084,-9.71021 -5.00063,-12.32959 -0.29104,-0.44979 -0.60854,-0.97895 -0.71437,-1.19062 -0.34396,-0.79375 -4.15396,-5.715 -5.63563,-7.3025 -1.98437,-2.14313 -2.30187,-3.75708 -1.19062,-5.92667 0.1852,-0.37041 1.00541,-2.19604 1.79916,-4.10104 1.71979,-4.10105 2.06375,-4.44501 4.41854,-4.39209 0.87313,0 2.16959,0.15875 2.8575,0.3175 0.68792,0.15875 2.43417,0.37041 3.88938,0.50271 1.45521,0.13229 3.73062,0.37041 5.02708,0.55562 2.51354,0.3175 6.40292,0.21167 10.31875,-0.26458 3.25438,-0.42334 6.24417,-0.79375 8.5725,-1.11125 1.69334,-0.23813 2.06375,-0.21167 2.91042,0.23812 0.84667,0.44979 1.11125,0.84667 2.2225,3.51897 0.71437,1.66688 1.40229,3.22792 1.53458,3.46604 0.10584,0.23813 0.44979,1.13771 0.76729,1.95792 0.68792,2.01083 0.39688,3.14854 -1.29645,4.97417 -1.905,2.0902 -3.73063,4.3127 -3.73063,4.60375 0,0.13229 -0.21167,0.42333 -0.50271,0.68791 -0.71437,0.635 -3.67771,5.715 -4.28625,7.35542 -0.29104,0.76729 -0.76729,1.87854 -1.00541,2.46062 -0.68792,1.50813 -1.11125,2.75167 -1.34938,3.99521 -0.13229,0.58209 -0.34396,1.34938 -0.47625,1.71979 -0.3175,0.74084 -0.9525,4.7625 -1.37583,8.49313 -0.21167,1.85208 -0.21167,3.28083 0,5.29167 0.37041,3.57187 1.03187,7.46125 1.48166,8.94291 0.18521,0.66146 0.60855,2.06375 0.92605,3.12209 0.3175,1.05833 0.68791,1.98437 0.79375,2.06375 0.13229,0.0794 0.23812,0.3175 0.23812,0.52916 0,0.58209 2.46063,5.50334 3.65125,7.27604 2.48708,3.75709 3.54542,5.08 6.37646,7.9375 1.69333,1.66688 3.67771,3.43959 4.39208,3.9423 0.74084,0.47625 1.61396,1.1377 1.98438,1.4552 0.37041,0.3175 1.19062,0.87313 1.85208,1.21709 0.66146,0.34396 1.56104,0.87312 1.98438,1.19062 0.84666,0.60854 2.06375,1.16417 5.15937,2.43417 5.66208,2.27542 9.97479,3.04271 17.33021,3.04271 5.95312,0 9.57792,-0.47625 14.02292,-1.85209 2.4077,-0.74083 7.91104,-3.22791 9.525,-4.3127 0.44979,-0.29105 0.97895,-0.60855 1.19062,-0.71438 0.21167,-0.0794 1.71979,-1.16417 3.33375,-2.38125 2.83104,-2.14312 5.63564,-4.81542 7.40835,-7.09083 2.09021,-2.64584 3.54541,-4.63021 3.54541,-4.78896 0,-0.10583 0.4498,-0.89958 1.00542,-1.79917 2.54,-4.07458 4.81542,-10.63625 5.66208,-16.43062 0.4498,-3.06917 0.4498,-9.92188 0,-12.96459 -0.44979,-2.88395 -2.01083,-8.7577 -2.83104,-10.58333 -0.3175,-0.74083 -0.82021,-1.85208 -1.08479,-2.51354 -0.26458,-0.66146 -1.19062,-2.38125 -2.06375,-3.83646 -3.22792,-5.45042 -6.6675,-9.33979 -11.58876,-13.12333 -1.69334,-1.29646 -3.20146,-2.35479 -3.30729,-2.35479 -0.10584,0 -0.7673,-0.39688 -1.42875,-0.87313 -2.93688,-2.09021 -10.21292,-4.81543 -14.52563,-5.47688 -0.79375,-0.10584 -1.98437,-0.34396 -2.64583,-0.47625 -0.66146,-0.15875 -2.56646,-0.34396 -4.23334,-0.4498 -1.69333,-0.10583 -3.3602,-0.34395 -3.75708,-0.55562 -0.87312,-0.44979 -1.56104,-1.42875 -2.32833,-3.28083 -0.3175,-0.79375 -0.79375,-1.93146 -1.05834,-2.51355 -1.37583,-3.0427 -1.905,-4.68312 -1.74625,-5.52979 0.21167,-1.03187 0.47625,-1.29646 4.41855,-4.31271 7.38187,-5.5827 11.32416,-9.57791 17.11854,-17.30375 3.54541,-4.70958 3.70416,-4.7625 8.91646,-2.48708 0.44979,0.18521 1.74625,0.71438 2.91041,1.19063 2.96334,1.21708 3.73063,2.11666 3.91584,4.60375 0.26458,3.70416 0.9525,8.255 1.50812,10.3452 0.3175,1.16417 0.68793,2.46063 0.79376,2.91042 0.39688,1.45521 1.11125,3.30729 1.34938,3.46604 0.13229,0.0794 0.23812,0.37042 0.23812,0.635 0,1.08479 3.09563,6.50875 5.66209,9.92188 2.43416,3.22791 5.47687,6.24417 8.78416,8.73126 1.64042,1.24354 3.04271,2.24896 3.12209,2.24896 0.0794,0 0.635,0.34395 1.27,0.76729 2.38125,1.56104 5.92666,3.14854 9.47208,4.18041 1.24354,0.37042 2.64583,0.82021 3.12208,1.03188 0.47625,0.21167 1.27,0.37042 1.77271,0.37042 0.47625,0 1.69334,0.1852 2.69875,0.42333 2.54,0.60854 10.58334,0.60854 13.12334,0 1.00541,-0.23813 2.11666,-0.42333 2.51354,-0.42333 0.37041,0 1.16416,-0.15875 1.77271,-0.37042 0.58208,-0.18521 1.7727,-0.55563 2.64583,-0.79375 3.20146,-0.89958 7.62,-2.83104 9.8425,-4.28625 0.74083,-0.50271 1.42875,-0.89958 1.53458,-0.89958 0.0794,0 1.37584,-0.92605 2.8575,-2.0373 3.01625,-2.27541 7.43479,-6.64105 8.78417,-8.67834 0.47625,-0.71437 1.11125,-1.56104 1.42875,-1.82562 0.3175,-0.29105 0.55562,-0.60855 0.55562,-0.7673 0,-0.13229 0.37042,-0.76729 0.79375,-1.42875 0.4498,-0.635 0.79375,-1.24354 0.79375,-1.32291 0,-0.10584 0.15875,-0.37042 0.34396,-0.58209 0.18521,-0.23812 0.74084,-1.32291 1.21709,-2.4077 0.47625,-1.0848 1.00541,-2.3548 1.21708,-2.77813 0.37042,-0.84667 0.87312,-2.38125 1.71979,-5.21229 0.26458,-0.97896 0.68792,-3.12208 0.92604,-4.7625 0.21167,-1.64042 0.52917,-3.96875 0.71438,-5.15938 0.21166,-1.64041 0.21166,-2.64583 0,-3.96875 -0.15875,-1.00541 -0.47625,-3.175 -0.71438,-4.86833 -0.37041,-2.88396 -1.05833,-5.84729 -1.85208,-7.91104 -1.77271,-4.57729 -2.30188,-5.87375 -2.69875,-6.56167 -0.26458,-0.42333 -0.9525,-1.5875 -1.50813,-2.59291 -0.58208,-1.00542 -1.34937,-2.19605 -1.74625,-2.61938 -0.39687,-0.44979 -0.8202,-0.97896 -0.9525,-1.21708 -1.42875,-2.61938 -8.38729,-9.04875 -12.27666,-11.32417 -0.37042,-0.21167 -1.29646,-0.76729 -2.06375,-1.24354 -1.71979,-1.03188 -5.10646,-2.48708 -8.06979,-3.43958 -1.19063,-0.37042 -2.51355,-0.79375 -2.96334,-0.9525 -1.08479,-0.37042 -2.77812,-0.635 -7.40833,-1.16417 -3.38667,-0.39688 -4.41854,-0.42333 -7.14375,-0.13229 -3.78354,0.37041 -6.27063,0.74083 -7.54063,1.13771 -0.5027,0.15875 -1.34937,0.39687 -1.85208,0.5027 -1.71979,0.34396 -5.97958,2.01084 -8.59896,3.36021 -3.175,1.61396 -6.985,4.23334 -9.71021,6.6675 -3.78354,3.43959 -3.9952,3.43959 -10.39812,0.66146 -2.06375,-0.89958 -2.69875,-1.13771 -3.25439,-1.32292 -0.3175,-0.0794 -0.87312,-0.55562 -1.24354,-1.03187 -0.79375,-1.03188 -0.84667,-2.30188 -0.26458,-5.05354 0.21166,-1.03188 0.39687,-2.51354 0.39687,-3.30729 0,-0.79375 0.18521,-2.40771 0.39688,-3.57188 0.5027,-2.8575 0.5027,-9.525 0,-12.22375 -0.21167,-1.13771 -0.39688,-2.72521 -0.39688,-3.51896 -0.0265,-0.79375 -0.18521,-2.2225 -0.39687,-3.175 -0.55563,-2.51356 -0.50271,-4.39211 0.13229,-5.45044 0.44979,-0.68793 1.00541,-1.03189 2.61939,-1.66689 1.11125,-0.42334 3.14854,-1.27001 4.52437,-1.8521 1.34938,-0.60854 2.80458,-1.08479 3.22792,-1.08479 0.87312,0 2.59291,0.79375 3.14854,1.48167 0.37042,0.44979 4.20687,3.65127 5.715,4.73606 3.73062,2.75169 9.63083,5.42399 15.02833,6.82628 3.01625,0.79375 8.91646,1.5875 11.64167,1.5875 4.33917,0 13.49375,-1.7727 16.27187,-3.14854 0.37042,-0.18521 1.61396,-0.71437 2.77813,-1.19062 1.16417,-0.47625 2.91042,-1.37585 3.88937,-2.01085 0.97896,-0.63501 1.85209,-1.13771 1.93146,-1.13771 0.42334,0 5.60917,-4.23336 7.51417,-6.11192 4.04812,-4.0746 8.14917,-10.02776 9.71021,-14.18175 0.34396,-0.92604 0.74083,-1.87855 0.87312,-2.11667 0.37042,-0.79375 0.87313,-2.27543 1.11125,-3.46606 0.13229,-0.60855 0.34396,-1.32293 0.47625,-1.58751 0.23813,-0.47625 0.87313,-4.41857 1.37584,-8.599 0.23812,-1.9844 0.23812,-3.28086 0,-5.55629 -0.42334,-3.94231 -1.03188,-7.67296 -1.37584,-8.57254 -0.15875,-0.42335 -0.37041,-1.2171 -0.50271,-1.79918 -0.10583,-0.58209 -0.44979,-1.66689 -0.74083,-2.38127 -0.29104,-0.74083 -0.79375,-1.98438 -1.08479,-2.77813 -0.3175,-0.79376 -0.66146,-1.64043 -0.79375,-1.87857 -0.13229,-0.21166 -0.55563,-1.00541 -0.9525,-1.71979 -0.635,-1.19063 -1.79917,-3.042722 -3.175,-5.027097 -2.77813,-4.101042 -8.41375,-9.472084 -12.43542,-11.879792 -0.50271,-0.291042 -1.5875,-0.9525 -2.43416,-1.455208 -0.84667,-0.529167 -2.48709,-1.349375 -3.65125,-1.825625 -1.16417,-0.47625 -2.3548,-0.978959 -2.64584,-1.11125 -1.71979,-0.740834 -5.47687,-1.825625 -7.40833,-2.116667 -0.71438,-0.105833 -2.14313,-0.343958 -3.175,-0.502708 -4.39208,-0.767292 -11.58875,-0.343959 -16.66875,0.978958 -5.05354,1.296458 -10.29229,3.439583 -12.62063,5.106458 -0.60854,0.449792 -1.19062,0.79375 -1.32291,0.79375 -0.44979,0 -5.60917,4.074584 -7.48771,5.926667 -3.41313,3.33375 -6.50875,7.540625 -9.10167,12.435434 -0.44979,0.84668 -0.82021,1.7198 -0.82021,1.90501 0,0.18521 -0.26458,0.84668 -0.58208,1.45522 -0.74083,1.42876 -2.32835,6.79983 -2.59293,8.83713 -0.21167,1.48168 -0.60854,5.02711 -0.9525,8.25505 -0.15875,1.64043 -0.9525,2.88398 -2.2225,3.54544 -0.50271,0.26458 -2.35479,1.05834 -4.10104,1.77272 -5.18583,2.11667 -4.68313,1.98438 -5.84729,1.50813 -0.82021,-0.34397 -1.50813,-1.05834 -3.33375,-3.51898 -2.24896,-3.04273 -2.72521,-3.59835 -6.37646,-7.7788 -2.27542,-2.59292 -6.6675,-6.48232 -11.45646,-10.08067 -4.65667,-3.49252 -4.65667,-3.51898 -2.98979,-7.64651 0.60854,-1.50813 1.24354,-3.095632 1.42875,-3.518966 1.5875,-4.021666 1.74625,-4.1275 6.87917,-4.736041 4.20687,-0.47625 7.35541,-1.031875 9.525,-1.666875 2.61937,-0.740834 4.7625,-1.481667 5.02708,-1.693334 0.13229,-0.132291 0.39687,-0.238125 0.60854,-0.238125 0.44979,0 5.02708,-2.248958 5.60917,-2.751666 0.21166,-0.211667 0.79375,-0.555625 1.27,-0.79375 2.67229,-1.349375 8.20209,-6.244167 10.79501,-9.551459 2.69875,-3.413126 2.77813,-3.545418 4.07458,-5.662086 1.53459,-2.540001 2.01084,-3.439585 2.80459,-5.556253 0.34396,-0.952501 0.74083,-1.825626 0.87312,-1.984376 0.10584,-0.15875 0.29104,-0.582084 0.39688,-0.952501 0.10583,-0.370417 0.42333,-1.561043 0.71437,-2.645834 1.08479,-4.02167 1.87854,-9.181045 1.905,-12.567712 0,-1.561041 -0.52916,-7.170208 -0.71437,-7.487708 -0.0794,-0.15875 -0.26459,-0.9525 -0.39688,-1.825625 -0.68791,-4.153958 -3.09562,-10.715625 -4.92125,-13.440833 -0.34396,-0.502708 -0.92604,-1.455208 -1.29646,-2.090208 -1.03187,-1.852084 -4.9477,-6.746875 -6.69397,-8.360834 -1.79916,-1.693333 -3.78354,-3.307291 -5.10646,-4.206874 -0.5027,-0.3439586 -0.97895,-0.7143742 -1.05833,-0.8202083 -0.0794,-0.105833 -0.55562,-0.3968746 -1.05833,-0.6614577 -0.50271,-0.238125 -1.11125,-0.6085417 -1.32292,-0.8202073 -0.68792,-0.5820837 -5.02708,-2.7516656 -5.55625,-2.7516656 -0.26458,0 -0.55562,-0.105833 -0.635,-0.238125 -0.3175,-0.5027077 -6.985,-2.4870825 -9.81604,-2.9104152 -6.53521,-0.9524993 -7.46125,-0.9524993 -13.36146,-0.291042 -3.25437,0.3704171 -7.43479,1.4287495 -10.58333,2.6458325 -0.79375,0.3175001 -1.87854,0.7143747 -2.38125,0.9260418 -1.29646,0.4497907 -3.67771,1.6933317 -4.63021,2.3547894 -0.42333,0.3174997 -1.08479,0.7143747 -1.45521,0.8731244 -0.37042,0.132292 -1.16417,0.6879167 -1.77271,1.1641664 -0.60854,0.5027076 -1.66687,1.3229166 -2.38125,1.8256246 -0.68791,0.502708 -2.32833,1.984375 -3.67771,3.307291 -6.90562,6.82625 -11.56229,15.954375 -13.12333,25.796875 -0.74083,4.709583 -0.39687,12.594167 0.74083,17.462501 1.0848,4.577295 3.33375,10.212924 5.15938,12.911675 0.42333,0.635 0.76729,1.217084 0.76729,1.296459 0,0.291042 3.83646,5.26521 5.23875,6.773335 0.76729,0.846667 1.61396,1.984375 1.82563,2.513542 0.42333,1.031875 0.3175,2.566458 -0.29105,3.730625 -0.37041,0.661458 -1.82562,4.180417 -2.54,6.111875 -0.8202,2.196042 -2.0902,2.831042 -4.68312,2.38125 -0.97896,-0.15875 -2.93688,-0.396875 -4.31271,-0.529167 -1.37583,-0.132291 -3.04271,-0.343958 -3.70417,-0.502708 -1.53458,-0.370417 -11.69458,-0.370417 -13.22916,0 -0.66146,0.15875 -2.32834,0.370417 -3.70417,0.502708 -1.37583,0.132292 -3.4925,0.396875 -4.65667,0.555625 -2.03729,0.3175 -2.19604,0.291042 -3.06916,-0.238125 -0.79375,-0.502708 -1.13771,-1.058333 -2.19604,-3.571875 -0.68792,-1.613958 -1.48167,-3.466041 -1.77271,-4.074583 -1.34938,-2.936875 -1.16417,-4.101042 1.05833,-6.50875 2.01083,-2.169583 3.4925,-4.021668 3.4925,-4.339168 0,-0.132291 0.37042,-0.582083 0.79375,-1.005416 0.44979,-0.423334 0.79375,-0.899585 0.79375,-1.058335 0,-0.185208 0.34396,-0.79375 0.76729,-1.375834 0.89959,-1.243542 3.20146,-5.873753 3.20146,-6.455836 0,-0.211668 0.15875,-0.608543 0.34396,-0.899585 0.3175,-0.502708 0.68792,-1.587501 1.61396,-4.762503 0.50271,-1.772709 1.11125,-5.42396 1.50812,-9.048752 0.23813,-2.275416 0.23813,-3.598333 0,-5.55625 -0.50271,-4.28625 -1.08479,-7.805208 -1.48166,-9.075208 -0.18521,-0.661458 -0.58209,-1.905 -0.82021,-2.778125 -0.26459,-0.873125 -0.55563,-1.719792 -0.66146,-1.852083 -0.10583,-0.15875 -0.55563,-1.217084 -1.00542,-2.38125 -0.76729,-2.010833 -3.20146,-6.323542 -4.47146,-7.963958 -3.25437,-4.1275 -4.33916,-5.371042 -6.27062,-7.170209 -1.24354,-1.11125 -2.75167,-2.38125 -3.38667,-2.804583 -0.60854,-0.396875 -1.34937,-0.9789576 -1.64041,-1.2435406 -0.29105,-0.2645837 -0.9525,-0.6879163 -1.45521,-0.9789584 -0.50271,-0.2645826 -1.40229,-0.7937493 -1.98438,-1.1641654 -3.62479,-2.3018734 -11.08604,-4.9212479 -15.74271,-5.5297887 -1.24354,-0.15875 -3.12208,-0.3968746 -4.18041,-0.5291667 -2.2225,-0.3175 -4.28625,-0.291042 -6.53521,0.02646 z M 236.15753,32.817067 c 5.84729,1.455209 9.63083,4.947709 11.48292,10.609792 0.92604,2.883958 0.42333,8.149167 -1.05834,11.033125 -0.8202,1.613958 -2.75166,3.889377 -4.28625,5.053544 -2.91041,2.222501 -5.60916,3.095627 -9.60437,3.095627 h -2.59292 l -0.50271,1.111251 c -0.29104,0.635 -0.89958,2.037292 -1.32291,3.122085 -0.44979,1.084792 -1.53459,3.704169 -2.38125,5.820836 -0.87313,2.116668 -2.14313,5.212294 -2.83104,6.879169 -2.56646,6.323542 -3.6248,8.89 -3.96875,9.657292 -0.18521,0.423333 -0.89959,2.169583 -1.5875,3.836458 -2.14313,5.318125 -2.83105,6.985004 -3.175,7.805214 -0.18521,0.42333 -0.74084,1.74626 -1.19063,2.91043 -0.44979,1.16417 -1.00542,2.46064 -1.19062,2.91043 -0.18521,0.42334 -0.89959,2.1696 -1.5875,3.83648 -0.66146,1.66689 -1.66688,4.04815 -2.16959,5.2917 -1.53458,3.62481 -2.72521,6.72046 -2.72521,7.06441 0,0.15875 0.55563,0.5821 1.27,0.8996 1.50813,0.74083 7.62,4.3921 8.22855,4.92128 0.23812,0.21166 1.42875,1.11125 2.64583,2.01083 5.05354,3.67774 11.50937,11.00674 15.50458,17.56844 0.97896,1.64043 1.93146,2.98981 2.09021,2.98981 0.15875,0 2.38125,-0.87313 4.92125,-1.95793 2.54,-1.08479 6.53521,-2.75169 8.86354,-3.73065 2.32834,-0.9525 4.52438,-1.87855 4.89479,-2.0373 1.5875,-0.68792 2.46063,-1.05834 6.21771,-2.59293 2.19604,-0.89959 4.33917,-1.79918 4.7625,-1.98439 1.08481,-0.44979 1.58752,-0.68792 5.42397,-2.27543 1.82563,-0.74084 3.91584,-1.64042 4.68313,-1.98438 0.74083,-0.34396 1.45521,-0.635 1.53458,-0.635 0.15875,0 2.09021,-0.79376 13.36146,-5.55629 l 4.89479,-2.09022 0.15875,-2.32834 c 0.23813,-3.70419 0.9525,-5.79441 2.80459,-8.46672 2.75166,-3.94231 7.54062,-6.42941 12.3825,-6.42941 3.46604,0 6.11187,0.92605 9.0752,3.1221 2.69875,2.0373 4.31271,4.36565 5.45042,7.85817 0.635,1.98439 0.58208,6.5617 -0.13229,8.65193 -1.11125,3.3073 -2.61938,5.45045 -5.29167,7.48775 -2.77812,2.11667 -5.52979,3.04273 -9.10166,3.04273 -4.84188,0 -8.96938,-2.03732 -12.09146,-6.03254 -0.26459,-0.3175 -0.71438,-0.58209 -1.03188,-0.58209 -0.50271,0 -4.78896,1.7198 -8.36083,3.33377 -0.74083,0.34396 -1.42875,0.635 -1.53458,0.635 -0.0794,0 -2.43417,0.95251 -5.23875,2.14314 -2.80459,1.16417 -6.74688,2.83106 -8.78417,3.67773 -2.03729,0.84667 -5.97958,2.51356 -8.78418,3.67772 -2.80458,1.19064 -5.15938,2.14315 -5.23875,2.14315 -0.10583,0 -0.79375,0.29104 -1.53458,0.635 -0.7673,0.34396 -3.14855,1.34938 -5.34459,2.24897 -2.16958,0.92605 -4.31271,1.79917 -4.7625,2.01084 -1.56104,0.66147 -8.46666,3.51898 -8.94291,3.67773 -0.79375,0.26459 -0.79375,0.84668 0.0265,3.1221 0.74084,2.0373 1.13771,3.43961 2.0373,7.09088 1.34937,5.45041 1.74625,16.48354 0.8202,22.225 -0.58208,3.65125 -1.19062,6.50875 -1.64041,7.75229 -0.21167,0.52916 -0.37042,1.32291 -0.37042,1.74625 0,0.79375 -0.23812,0.68791 7.14375,3.78354 0.37042,0.13229 1.03188,0.42333 1.45521,0.60854 0.44979,0.18521 1.87854,0.76729 3.175,1.29646 1.32292,0.55562 2.61937,1.08479 2.91042,1.21708 0.29104,0.13229 1.00541,0.42334 1.5875,0.66146 0.58208,0.23813 1.42875,0.58208 1.85208,0.79375 0.44979,0.18521 1.87854,0.76729 3.175,1.29646 1.32292,0.55562 2.67229,1.11125 3.04271,1.27 3.12209,1.34937 6.7998,2.8575 7.01147,2.8575 0.0794,0 0.79375,0.29104 1.53458,0.635 0.76729,0.34396 2.8575,1.24354 4.68313,2.01083 3.54541,1.45521 4.18041,1.71979 5.42396,2.24896 0.44979,0.18521 2.16958,0.89958 3.83645,1.5875 1.66688,0.68792 3.36021,1.40229 3.75709,1.61396 0.37041,0.21167 0.82021,0.37042 0.97896,0.37042 0.15875,0 0.89958,0.29104 1.66687,0.635 2.59292,1.21708 4.68313,2.01083 5.21229,2.01083 0.29104,0 0.97896,-0.47625 1.53459,-1.08479 3.75708,-4.07459 10.08062,-5.74146 15.29291,-4.04813 2.59292,0.84667 2.75167,0.92604 4.89479,2.51354 2.75167,2.01084 4.86834,5.47688 5.60917,9.10167 0.58208,2.88396 -0.0529,7.22313 -1.48167,9.89542 -1.40229,2.61937 -4.1275,5.23875 -6.77333,6.48229 -3.38667,1.56104 -7.27604,1.87854 -10.60979,0.84667 -2.43417,-0.7673 -2.83104,-0.9525 -5.02708,-2.56646 -3.67771,-2.69875 -6.13834,-7.62 -6.05896,-12.01209 0.0794,-3.14854 0.21166,-2.88395 -2.03729,-3.83645 -1.13771,-0.47625 -2.6723,-1.16417 -3.43959,-1.48167 -0.74083,-0.34396 -1.42875,-0.635 -1.53458,-0.635 -0.0794,0 -2.43417,-0.9525 -5.23875,-2.14313 -7.75229,-3.25437 -12.01208,-5.02708 -17.38314,-7.24958 -2.69875,-1.11125 -6.56167,-2.72521 -8.59896,-3.57187 -2.03729,-0.84667 -5.84729,-2.43417 -8.46666,-3.51896 -2.61938,-1.08479 -6.19125,-2.56646 -7.91105,-3.30729 -1.74625,-0.71438 -3.3602,-1.24355 -3.59833,-1.19063 -0.23812,0.0529 -0.76729,0.89958 -1.21708,1.87854 -0.97896,2.2225 -4.02167,7.40834 -5.47688,9.31334 -0.60854,0.79375 -1.29646,1.74625 -1.53458,2.11666 -0.87313,1.40229 -6.05896,6.82625 -8.59896,8.99584 -3.78354,3.25437 -5.37104,4.41854 -9.10167,6.61458 -1.82562,1.08479 -3.38666,2.09021 -3.4925,2.2225 -0.23812,0.34396 0.0794,1.16417 4.1275,10.795 0.9525,2.27542 1.74625,4.20687 1.74625,4.31271 0,0.0794 0.29105,0.79375 0.635,1.53458 0.34396,0.76729 1.24355,2.8575 1.98438,4.68313 1.61396,3.86291 1.82562,4.36562 2.27542,5.42395 1.05833,2.46064 2.24895,5.39751 2.24895,5.55626 0,0.0794 0.29105,0.79375 0.635,1.53459 0.34396,0.76729 1.37584,3.14854 2.27542,5.34458 0.89958,2.16958 1.77271,4.31271 1.98438,4.7625 0.1852,0.42333 0.89958,2.16958 1.5875,3.83646 0.68791,1.66687 1.40229,3.38667 1.5875,3.83646 0.21166,0.42333 0.79375,1.85208 1.32291,3.175 0.55563,1.29646 1.11125,2.54 1.24354,2.69875 0.18521,0.23812 1.05834,0.34396 2.59292,0.34396 5.55625,0 10.4775,2.98979 13.20271,8.01687 1.13771,2.11667 1.42875,3.30729 1.53458,6.6675 0.15875,4.18042 -0.39687,6.05896 -2.77812,9.33979 -2.83104,3.86292 -7.35542,6.13834 -12.17084,6.13834 -3.09562,0 -6.5352,-1.05834 -8.46666,-2.61938 -2.88396,-2.32833 -2.8575,-2.30187 -4.65667,-5.08 -1.16417,-1.85208 -1.74625,-4.20687 -1.74625,-7.32896 0,-3.01625 0.39688,-4.86833 1.50813,-7.06437 0.84666,-1.61396 3.30729,-4.52438 4.04812,-4.7625 1.29646,-0.42334 1.32292,-0.37042 -6.50875,-18.83834 -0.92604,-2.19604 -1.69333,-4.07458 -1.69333,-4.18041 0,-0.0794 -0.29104,-0.84667 -0.68792,-1.66688 -0.37042,-0.82021 -0.82021,-1.87854 -1.00542,-2.30187 -0.76729,-1.66688 -2.27541,-5.39751 -2.27541,-5.55626 0,-0.0794 -0.29104,-0.79375 -0.635,-1.53459 -0.34396,-0.76729 -1.03188,-2.32833 -1.48167,-3.4925 -0.47625,-1.16416 -1.19062,-2.88395 -1.5875,-3.83645 -0.42333,-0.9525 -1.48167,-3.51896 -2.38125,-5.68855 -0.89958,-2.19604 -1.77271,-4.33916 -1.98437,-4.7625 -0.37042,-0.84666 -0.68792,-1.61395 -1.85209,-4.47145 -0.42333,-0.97896 -0.92604,-1.85209 -1.11125,-1.93146 -0.21166,-0.0794 -1.03187,0.10583 -1.87854,0.39687 -2.19604,0.79375 -6.56167,1.93146 -8.36083,2.19604 -0.87313,0.1323 -2.01084,0.34396 -2.51354,0.50271 -0.52917,0.13229 -2.88396,0.37042 -5.23875,0.55563 -4.445,0.3175 -11.43,0.0265 -14.07584,-0.58209 -0.66146,-0.15875 -1.87854,-0.39687 -2.67229,-0.5027 -1.66687,-0.26459 -2.80458,-0.55563 -6.32354,-1.64042 -1.905,-0.58208 -2.56646,-0.68792 -2.83104,-0.44979 -0.21167,0.15875 -0.37042,0.42333 -0.37042,0.55562 0,0.23813 -1.82562,4.84188 -2.75167,6.95854 -0.21166,0.42334 -0.71437,1.69334 -1.16416,2.77813 -0.44979,1.08479 -1.53459,3.70417 -2.38125,5.82083 -0.87313,2.11667 -2.14313,5.21229 -2.83104,6.87917 -2.51355,6.21772 -3.6248,8.89001 -3.96875,9.6573 -0.18521,0.42333 -0.84667,2.03729 -1.45521,3.57188 -1.66688,4.10104 -2.93688,7.19666 -3.20146,7.8052 -0.10583,0.29105 -0.68792,1.7198 -1.29646,3.175 -1.03187,2.54 -1.21708,2.9898 -1.98437,4.7625 -0.18521,0.42334 -0.71438,1.66688 -1.16417,2.75167 -0.44979,1.05833 -0.82021,2.14313 -0.82021,2.38125 0,0.23813 0.50271,0.84667 1.13771,1.34938 1.45521,1.16416 3.25437,3.59833 3.88937,5.23875 0.26459,0.68791 0.635,1.66687 0.82021,2.16958 0.18521,0.50271 0.39688,2.03729 0.44979,3.38667 0.0794,2.48708 0.0529,2.7252 -1.19062,6.32354 -0.55563,1.64041 -2.93688,4.81541 -4.57729,6.08541 -3.06917,2.38125 -6.37646,3.38667 -10.31875,3.20146 -6.37646,-0.34396 -11.50938,-4.39208 -13.62604,-10.74208 -0.60855,-1.85208 -0.58209,-6.72042 0.0265,-8.65188 1.37584,-4.20687 4.18042,-7.4877 7.96396,-9.28687 2.16959,-1.03188 3.06917,-1.24354 5.76792,-1.34938 1.32292,-0.0529 2.64583,-0.15875 2.96333,-0.21166 0.74084,-0.15875 1.00542,-0.74084 4.70959,-9.92188 0.68791,-1.66687 1.34937,-3.28083 1.4552,-3.57187 0.1323,-0.29104 0.66146,-1.61396 1.19063,-2.91042 0.52917,-1.32292 1.11125,-2.75167 1.32292,-3.175 0.34395,-0.82021 0.97895,-2.38125 3.175,-7.80521 0.68791,-1.66687 1.40229,-3.41313 1.5875,-3.83647 0.1852,-0.44979 0.74083,-1.74625 1.19062,-2.91041 0.44979,-1.16417 1.00542,-2.48709 1.19063,-2.91042 0.1852,-0.44979 0.89958,-2.16958 1.5875,-3.83646 2.32833,-5.79437 2.83104,-7.01146 3.20145,-7.80521 1.29646,-2.8575 3.28084,-8.04333 3.28084,-8.59895 0,-0.23813 -0.89959,-0.87313 -2.16959,-1.53459 -5.66208,-2.93687 -12.35604,-8.12271 -16.61583,-12.88521 -0.66146,-0.71437 -1.61396,-1.7727 -2.11667,-2.32833 -0.5027,-0.55562 -1.03187,-1.21708 -1.16416,-1.45521 -0.13229,-0.26458 -0.82021,-1.19062 -1.48167,-2.06375 -1.45521,-1.87854 -4.36562,-6.72041 -5.37104,-8.83708 -1.16417,-2.46063 -1.19063,-2.51354 -2.64583,-2.01083 -0.68792,0.23812 -1.45521,0.52916 -1.69334,0.66145 -0.42333,0.23813 -9.10166,3.86292 -14.10229,5.90021 -1.08479,0.44979 -2.61939,1.11125 -3.41314,1.45521 -0.767292,0.37042 -1.852082,0.82021 -2.381252,1.00542 -0.529157,0.18521 -2.963327,1.19062 -5.371037,2.2225 -2.434157,1.03187 -4.497907,1.87854 -4.577287,1.87854 -0.0794,0 -0.79375,0.29104 -1.534577,0.635 -0.76729,0.34396 -3.14854,1.37583 -5.344587,2.27542 -2.16958,0.87312 -4.3127,1.7727 -4.7625,1.95791 -0.423327,0.21167 -2.169577,0.92604 -3.836447,1.61396 -1.666877,0.68792 -3.386667,1.40229 -3.836457,1.5875 -0.42334,0.18521 -1.74625,0.74083 -2.91042,1.21708 -1.164167,0.47625 -2.275417,1.03188 -2.434167,1.27 -0.23812,0.26459 -0.34395,1.34938 -0.34395,3.175 0,3.86292 -0.71438,6.0325 -2.936877,9.04875 -2.06375,2.80459 -4.84187,4.65667 -8.307917,5.55625 -5.027077,1.32292 -10.715614,-0.23812 -14.287491,-3.88937 -3.175,-3.25438 -4.365617,-6.13833 -4.365617,-10.68917 0,-4.97416 1.746247,-8.73125 5.450417,-11.72104 3.016247,-2.43417 5.212287,-3.20146 9.366244,-3.22792 3.095617,0 4.550827,0.29105 6.879157,1.4023 1.296457,0.635 3.915837,2.61937 4.392087,3.3602 0.79375,1.21709 0.52916,1.29646 10.556864,-2.88395 4.524377,-1.87855 5.291667,-2.2225 6.746874,-2.8575 0.5027,-0.23813 2.7252,-1.16417 4.89479,-2.06375 2.196037,-0.89959 4.339157,-1.77271 4.762497,-1.98438 0.44979,-0.18521 2.169577,-0.89958 3.836457,-1.5875 1.66687,-0.68792 3.413117,-1.40229 3.836447,-1.5875 0.4498,-0.21167 2.59292,-1.08479 4.762497,-2.01083 2.196052,-0.89959 4.577312,-1.905 5.344602,-2.24896 0.74083,-0.34396 1.45521,-0.635 1.53458,-0.635 0.10584,0 2.46063,-0.9525 5.23875,-2.14313 2.80459,-1.19062 5.60917,-2.35479 6.27063,-2.64583 l 1.19062,-0.47625 -0.0794,-1.27 c -0.0265,-0.68792 -0.23813,-1.79917 -0.44979,-2.46062 -0.42334,-1.37584 -1.00542,-4.31271 -1.5875,-8.0698 -0.97896,-6.50875 -0.26459,-17.43604 1.5875,-23.9448 0.1852,-0.66147 0.39687,-1.48167 0.47625,-1.85209 0.0794,-0.37043 0.5027,-1.66689 0.9525,-2.88398 0.47625,-1.24355 0.79375,-2.38126 0.71437,-2.51355 -0.13229,-0.37043 -1.13771,-0.84668 -4.92125,-2.40773 -1.66687,-0.68792 -3.38667,-1.4023 -3.83646,-1.58751 -0.42333,-0.21167 -2.56646,-1.08479 -4.7625,-1.98438 -2.16958,-0.89959 -4.73605,-1.95793 -5.68855,-2.38126 -0.952502,-0.39688 -2.672292,-1.11126 -3.836459,-1.58751 -1.16417,-0.4498 -2.72521,-1.13772 -3.4925,-1.48168 -0.74083,-0.34396 -1.455207,-0.635 -1.534577,-0.635 -0.15875,0 -3.04271,-1.16418 -5.609167,-2.27543 -0.47625,-0.21167 -1.27,-0.52917 -1.71979,-0.74084 -0.47625,-0.18521 -1.16417,-0.47625 -1.53458,-0.635 -0.37042,-0.15875 -2.143127,-0.89959 -3.968747,-1.64043 -1.82563,-0.7673 -3.651247,-1.53459 -4.101047,-1.7198 -0.42333,-0.21167 -2.16958,-0.92605 -3.836447,-1.58751 -1.66688,-0.68793 -3.38667,-1.4023 -3.83646,-1.58751 -3.651247,-1.61397 -5.556247,-2.27543 -6.085417,-2.14313 -0.34396,0.0794 -0.846667,0.55562 -1.164167,1.00541 -1.1377,1.87855 -4.07458,4.12753 -6.429367,4.94774 -2.80458,0.97897 -3.33375,1.0848 -5.688537,1.0848 -1.905,0 -2.83104,-0.15875 -4.471457,-0.68791 -2.27542,-0.76731 -2.69875,-1.00543 -4.921247,-2.67232 -2.19604,-1.66688 -3.70417,-3.83647 -4.788957,-6.82629 -0.84667,-2.3548 -0.82021,-7.48774 0.0265,-9.92193 1.269997,-3.54544 4.418537,-7.06442 7.514164,-8.44025 3.28083,-1.45522 3.38666,-1.48168 6.826247,-1.48168 2.645827,0 3.466037,0.0794 4.153957,0.4498 0.47625,0.26458 1.03187,0.47625 1.24354,0.47625 0.74083,0 3.730617,1.93146 5.053537,3.28085 2.778117,2.8046 4.312707,6.19129 4.577287,10.00131 0.0529,1.13771 0.26458,2.14313 0.42333,2.27543 0.15875,0.13229 1.24355,0.60854 2.407707,1.0848 1.16417,0.47625 2.48709,1.03187 2.91042,1.21709 0.92604,0.39688 6.720417,2.80459 12.435414,5.1594 2.196037,0.89959 4.577287,1.93146 5.344577,2.27543 0.740827,0.34396 1.455207,0.635 1.534577,0.635 0.15875,0 3.09563,1.19064 5.556247,2.24897 1.05834,0.4498 1.56104,0.66147 5.423957,2.27543 1.825632,0.74084 3.915842,1.64042 4.683142,1.98439 0.74083,0.34396 1.4552,0.635 1.53458,0.635 0.10583,0 2.03729,0.79376 4.31271,1.74626 2.27541,0.9525 5.87375,2.46064 7.99041,3.33377 2.11667,0.87314 4.04813,1.69335 4.28625,1.82564 0.71438,0.37041 1.11125,0.0794 2.06375,-1.56105 2.61938,-4.41857 4.31271,-6.74692 7.83167,-10.74215 5.10646,-5.82086 11.64167,-10.87443 18.49438,-14.31404 1.32291,-0.68791 2.14312,-1.27001 2.19604,-1.56105 0.0529,-0.29104 -0.15875,-1.11126 -0.47625,-1.85209 -0.34396,-0.74084 -0.74084,-1.7198 -0.92604,-2.14314 -0.18521,-0.44979 -0.47625,-1.0848 -0.60855,-1.45521 -0.15875,-0.37042 -0.71437,-1.74626 -1.24354,-3.04273 -0.97896,-2.43418 -1.34937,-3.28086 -2.06375,-4.89482 -0.21166,-0.50271 -1.13771,-2.72522 -2.03729,-4.89482 -0.89958,-2.19606 -1.79917,-4.339189 -1.98437,-4.762522 -0.21167,-0.449792 -1.0848,-2.592917 -1.98438,-4.7625 -2.01083,-4.894792 -1.98437,-4.815417 -2.48708,-5.953125 -0.21167,-0.502709 -0.82021,-2.010834 -1.34938,-3.307292 -0.52916,-1.322917 -1.27,-2.989792 -1.61396,-3.757083 -0.34395,-0.740834 -0.635,-1.42875 -0.635,-1.534584 0,-0.105833 -2.88395,-7.143752 -3.70416,-8.995836 -0.13229,-0.291042 -0.89959,-2.143126 -1.74625,-4.101044 -0.82021,-1.957917 -1.61396,-3.730628 -1.74625,-3.915836 -0.18521,-0.211667 -1.11125,-0.3175 -2.80459,-0.3175 -7.3025,0 -12.91166,-4.15396 -15.02833,-11.086046 -0.47625,-1.613958 -0.47625,-5.953125 0.0265,-7.884583 0.55562,-2.090208 1.03187,-3.095625 2.54,-5.132917 3.04271,-4.1275 7.83167,-6.323541 12.93812,-5.979583 3.59834,0.264583 5.95313,1.164167 8.5725,3.280833 2.3548,1.905 3.88938,4.1275 4.8948,7.170209 0.8202,2.407708 0.76729,6.932083 -0.0794,9.36625 -0.87312,2.460625 -1.85208,4.048125 -3.51896,5.715002 -0.79375,0.79375 -1.40229,1.640417 -1.40229,1.957917 0,0.502709 1.64042,4.683127 3.06917,7.805213 0.34396,0.740834 0.635,1.428751 0.635,1.534584 0,0.07937 0.9525,2.434169 2.14312,5.238753 1.16417,2.778126 2.48709,5.979584 2.93688,7.064376 0.44979,1.084792 1.16416,2.725208 1.56104,3.65125 0.42333,0.899583 0.76729,1.74625 0.76729,1.852083 0,0.132292 0.66146,1.74625 1.48167,3.65125 0.82021,1.878542 1.93146,4.577292 2.51354,6.006042 0.55562,1.402292 1.13771,2.778125 1.27,3.042709 0.13229,0.23812 0.60854,1.34938 1.03187,2.43418 0.4498,1.08479 1.5875,3.86294 2.56646,6.16482 0.9525,2.30189 2.09021,5.05358 2.51354,6.13838 0.42334,1.08479 0.89959,2.19605 1.03188,2.43417 0.10583,0.26459 0.47625,1.05835 0.79375,1.77272 0.47625,1.0848 0.66146,1.24355 1.16417,1.13772 0.3175,-0.0794 1.53458,-0.39688 2.69875,-0.68793 2.48708,-0.635 6.48229,-1.42875 9.65729,-1.90501 2.88396,-0.44979 11.1125,-0.44979 14.02291,-0.0265 4.1275,0.60855 6.985,1.16417 9.525,1.85209 1.37584,0.37042 2.91042,0.68793 3.38667,0.68793 0.79375,0.0264 0.92604,-0.0794 1.37583,-1.16418 0.47625,-1.19064 1.48167,-3.67773 4.49792,-10.98027 0.89958,-2.19606 1.98438,-4.86836 2.43417,-5.95316 0.44979,-1.0848 0.9525,-2.354802 1.13771,-2.778136 0.1852,-0.449791 0.71437,-1.693333 1.16416,-2.778125 1.03188,-2.566458 3.78354,-9.36625 4.84188,-11.90625 0.44979,-1.084791 1.11125,-2.592916 1.42875,-3.360208 0.34396,-0.740833 0.635,-1.455208 0.635,-1.534583 0,-0.15875 1.37583,-3.571875 2.19604,-5.42396 0.15875,-0.370416 0.42333,-1.031876 0.58208,-1.455209 1.29646,-3.333752 3.12209,-7.778755 3.41313,-8.33438 0.18521,-0.370417 0.68791,-1.534584 1.08479,-2.619377 l 0.74083,-1.957917 -0.89958,-0.846667 c -2.11667,-1.957918 -4.445,-5.688544 -4.47146,-7.143752 -0.0265,-0.291042 -0.18521,-0.820209 -0.39687,-1.190625 -0.52917,-0.9525 -0.52917,-4.815417 0.0265,-6.482292 0.92605,-2.778125 1.69334,-4.365625 2.91042,-5.926667 1.98438,-2.566458 4.445,-4.233333 7.64646,-5.159375 0.87312,-0.264583 1.71979,-0.502708 1.85208,-0.555625 0.68792,-0.238125 4.1275,-0.07937 5.42396,0.238125 z" />
    <path
       id="path4"
       d="m 171.86378,124.15138 c -2.96333,0.34396 -5.68854,0.87313 -8.46667,1.64043 -1.42875,0.37042 -1.74625,0.55562 -1.79916,1.08479 -0.0794,0.50272 0.89958,3.14856 2.72521,7.30255 0.1852,0.42333 0.89958,2.16959 1.5875,3.83648 0.66145,1.66688 1.40229,3.46606 1.64041,3.96877 0.635,1.45522 1.00542,2.3548 1.95792,4.60378 l 0.87312,2.06376 1.05834,-0.15875 c 4.18041,-0.63501 5.95312,-0.74084 9.28687,-0.60855 2.03729,0.10583 4.31271,0.31751 5.05354,0.52917 0.74084,0.18521 1.45521,0.3175 1.61396,0.26459 0.26459,-0.10584 2.38125,-4.89482 4.36563,-9.86902 0.42333,-1.08479 0.9525,-2.3548 1.13771,-2.77814 0.60854,-1.4023 2.16958,-5.26523 2.64583,-6.5617 0.26458,-0.68792 0.58208,-1.32293 0.68792,-1.4023 0.34395,-0.21167 0.29104,-1.37585 -0.0529,-1.58751 -0.3175,-0.18521 -3.36021,-0.97896 -6.05896,-1.58751 -5.00062,-1.11125 -12.67354,-1.42875 -18.25625,-0.74084 z" />
    <path
       id="path6"
       d="m 152.41691,130.15745 c -8.49313,4.55087 -16.43063,11.72112 -21.14021,19.10303 -0.74084,1.16418 -1.50813,2.3548 -1.69334,2.64585 -0.79375,1.27 -0.74083,1.82564 0.26459,2.22251 1.13771,0.47625 10.10708,4.2069 14.26104,5.95316 4.36562,1.82563 6.87917,2.8046 7.14375,2.8046 0.10583,0 0.87312,-0.92605 1.71979,-2.0373 2.09021,-2.77814 5.05354,-5.6092 7.85813,-7.51422 1.29645,-0.84666 2.46062,-1.56105 2.59291,-1.56105 0.10584,0 0.34396,-0.23812 0.50271,-0.52916 0.26458,-0.47625 -0.13229,-1.66689 -1.98437,-5.95316 -0.18521,-0.44979 -1.0848,-2.59294 -1.95792,-4.76253 -0.89958,-2.19605 -1.79917,-4.33919 -1.98438,-4.76253 -0.21166,-0.44979 -0.8202,-1.87854 -1.34937,-3.17501 -1.03188,-2.51356 -1.61396,-3.57189 -1.93146,-3.57189 -0.10583,0 -1.13771,0.52916 -2.30187,1.1377 z" />
    <path
       id="path8"
       d="m 202.44961,129.86641 c -0.23812,0.3175 -0.42333,0.68792 -0.42333,0.82021 0,0.1323 -0.15875,0.60855 -0.37042,1.05834 -0.21166,0.47625 -0.92604,2.19607 -1.5875,3.81002 -2.11666,5.21233 -3.62479,8.8636 -4.55083,11.19195 -0.50271,1.24354 -1.03187,2.46063 -1.16417,2.69876 -0.15875,0.26458 -0.26458,0.82022 -0.26458,1.27001 0,0.60854 0.18521,0.87312 0.84667,1.21709 3.22791,1.66689 7.48771,5.42399 10.10708,8.91651 0.92604,1.21708 1.74625,2.0373 2.01083,2.0373 0.47625,0 3.96875,-1.4023 7.35542,-2.93689 0.89958,-0.42334 1.74625,-0.76729 1.85208,-0.76729 0.1323,0 1.34938,-0.47626 2.72521,-1.08481 1.37584,-0.60854 4.04813,-1.7198 5.92667,-2.48709 2.06375,-0.84668 3.46604,-1.58751 3.51896,-1.82563 0.0794,-0.39689 -1.29646,-3.09565 -2.46063,-4.78899 -3.04271,-4.55087 -8.5725,-10.39819 -12.77937,-13.57321 -2.06375,-1.56105 -4.49792,-3.22793 -4.68313,-3.22793 -0.0529,0 -0.635,-0.37042 -1.29646,-0.79375 -1.00541,-0.68792 -3.88937,-2.11668 -4.25979,-2.11668 -0.0529,0 -0.29104,0.26458 -0.50271,0.58208 z" />
    <path
       id="path10"
       d="m 125.72045,160.29367 c -0.89959,1.37584 -2.59292,7.62004 -3.09563,11.21837 -0.15875,1.16417 -0.37041,2.8575 -0.50271,3.81 -0.3175,2.24896 -0.3175,8.09625 0,10.50396 0.15875,1.05833 0.37042,2.72521 0.50271,3.70416 0.26459,1.93146 1.13771,5.87375 1.5875,7.03792 0.3175,0.79375 0.79375,0.89958 1.82563,0.34396 0.39687,-0.21167 2.51354,-1.11125 4.68312,-2.01083 2.19604,-0.89959 4.33917,-1.77271 4.7625,-1.98438 0.44979,-0.18521 2.16959,-0.89958 3.83646,-1.5875 1.66688,-0.66146 3.43958,-1.40229 3.91583,-1.61396 2.01084,-0.87312 2.8575,-1.24354 3.20146,-1.42875 0.82021,-0.37041 0.92604,-0.9525 0.52917,-2.93687 -0.76729,-3.96875 -0.39688,-9.65729 0.87312,-14.07584 0.29105,-0.97895 0.47625,-1.93145 0.39688,-2.11666 -0.15875,-0.44979 -1.08479,-0.87313 -6.79979,-3.22792 -1.66688,-0.68793 -3.43959,-1.4023 -3.88938,-1.61397 -0.47625,-0.21166 -1.27,-0.52917 -1.71979,-0.74084 -0.47625,-0.21167 -2.24896,-0.92604 -3.91583,-1.61397 -1.66688,-0.68792 -3.33375,-1.40229 -3.70417,-1.5875 -1.37583,-0.68793 -2.06375,-0.71438 -2.48708,-0.0794 z" />
    <path
       id="path12"
       d="m 230.46899,160.21429 c -0.15875,0.1323 -0.84667,0.47626 -1.5875,0.7673 -1.24354,0.50271 -6.69396,2.77814 -15.13417,6.29712 -2.09021,0.84666 -3.83646,1.71979 -3.91583,1.93145 -0.0794,0.21167 0.0794,1.21709 0.37042,2.24896 1.24354,4.55084 1.64041,8.96938 1.11125,12.19729 -0.68792,4.04813 -0.71438,3.91584 0.29104,4.39209 0.87312,0.44979 2.64583,1.19062 11.58875,4.86833 2.69875,1.08479 5.26521,2.16958 5.68854,2.35479 2.40771,1.11125 3.86292,1.56104 4.1275,1.29646 0.37042,-0.37042 1.42875,-4.86833 1.93146,-8.28146 0.58208,-3.75708 0.58208,-11.90625 0,-15.61041 -0.76729,-4.97417 -2.48709,-11.35066 -3.33375,-12.35609 -0.3175,-0.39687 -0.79375,-0.44979 -1.13771,-0.10583 z" />
    <path
       id="path14"
       d="m 147.38982,194.87475 c -0.87312,0.42333 -3.06916,1.37583 -4.89479,2.11666 -3.78354,1.5875 -4.33917,1.79917 -5.42396,2.27542 -0.42333,0.18521 -2.16958,0.89958 -3.83646,1.5875 -5.29166,2.14313 -5.55625,2.27542 -5.92666,2.8575 -0.3175,0.50271 0.60854,2.56646 2.83104,6.27063 4.92125,8.22854 13.30854,16.16604 21.93396,20.71687 0.97896,0.50271 1.32291,0.58208 1.64041,0.34396 0.34396,-0.23813 2.64584,-5.55625 3.75709,-8.70479 0.21166,-0.52917 0.47625,-1.19063 0.60854,-1.45521 0.13229,-0.23813 0.60854,-1.34938 1.03187,-2.43417 0.4498,-1.08479 1.48167,-3.57187 2.27542,-5.52979 0.82021,-1.95792 1.48167,-3.75708 1.48167,-4.02167 0,-0.29104 -0.71438,-0.9525 -1.905,-1.71979 -3.46604,-2.27541 -8.255,-7.43479 -10.16,-10.95375 -0.52917,-1.00541 -1.42875,-2.11666 -1.66688,-2.09021 -0.0794,0 -0.87312,0.34396 -1.74625,0.74084 z" />
    <path
       id="path16"
       d="m 208.00586,194.76891 c -0.23812,0.34396 -0.42333,0.71438 -0.42333,0.82021 0,0.29104 -1.5875,2.75167 -2.72521,4.20688 -1.74625,2.27541 -4.445,4.89479 -6.985,6.77333 -1.34937,1.00542 -2.46062,1.95792 -2.46062,2.09021 0,0.15875 0.79375,2.14312 1.74625,4.445 0.9525,2.27542 2.43416,5.82083 3.28083,7.85812 0.84667,2.0373 2.11667,5.05355 2.77813,6.6675 0.68791,1.64042 1.32291,3.04271 1.42875,3.09563 0.44979,0.29104 4.04812,-1.82563 7.91104,-4.65667 3.67771,-2.69875 8.67833,-7.56708 11.19187,-10.92729 2.83104,-3.75708 6.85271,-10.68917 6.85271,-11.77396 0,-0.26458 -3.70417,-2.11666 -4.25979,-2.11666 -0.13229,0 -0.97896,-0.34396 -1.87854,-0.7673 -0.92604,-0.42333 -3.04271,-1.32291 -4.70959,-1.98437 -1.66687,-0.68792 -4.70958,-1.95792 -6.74687,-2.83104 -2.03729,-0.84667 -3.88938,-1.56104 -4.1275,-1.56104 -0.23813,0 -0.635,0.29104 -0.87313,0.66145 z" />
    <path
       id="path18"
       d="m 169.16503,211.64933 c -0.37042,0.29104 -0.87312,1.45521 -3.70417,8.38729 -0.44979,1.08479 -0.9525,2.32834 -1.1377,2.77813 -0.60855,1.42875 -0.87313,2.09021 -1.85209,4.49791 -0.55562,1.29646 -1.34937,3.25438 -1.77271,4.31271 -0.76729,1.79917 -0.79375,1.93146 -0.37041,2.40771 0.23812,0.26458 0.76729,0.55563 1.16416,0.66146 0.39688,0.0794 1.56105,0.39687 2.56646,0.68792 4.73604,1.34937 7.56709,1.69333 14.55209,1.69333 6.69395,0 9.44562,-0.26458 13.30854,-1.32292 0.74083,-0.21166 2.06375,-0.55562 2.91041,-0.76729 2.40771,-0.66146 3.4925,-1.21708 3.4925,-1.77271 0,-0.50271 -0.58208,-2.06375 -1.74625,-4.63021 -0.34395,-0.74083 -0.635,-1.4552 -0.635,-1.53458 0,-0.15875 -2.0902,-5.21229 -3.0427,-7.40833 -0.21167,-0.44979 -0.52917,-1.21709 -0.74084,-1.71979 -1.79916,-4.445 -2.72521,-6.42938 -3.04271,-6.53521 -0.1852,-0.0794 -1.1377,0.0529 -2.11666,0.29104 -3.12209,0.79375 -7.59354,1.08479 -11.24479,0.74083 -1.77271,-0.15875 -3.59834,-0.42333 -4.02167,-0.55562 -1.53458,-0.47625 -2.16958,-0.52917 -2.56646,-0.21167 z" />
  </g>
  <g
     style="fill:#808080;fill-opacity:1;stroke:none"
     id="text1957">
    <path
       id="path1965"
       d="m 422.51825,253.89584 h 24.53329 l 14.93331,-38.39994 h 66.13323 l 14.93331,38.39994 h 24.53329 L 507.85145,104.56275 h -25.59996 z m 47.99992,-59.73323 24.5333,-61.86657 24.53329,61.86657 z" />
    <path
       id="path1967"
       d="m 582.88465,253.89584 h 23.46662 V 104.56275 h -23.46662 z" />
    <path
       id="path1969"
       d="m 678.13446,253.89584 h 23.46663 V 200.5626 h 36.26661 c 29.01329,0 50.13325,-21.3333 50.13325,-47.99993 0,-26.66662 -21.11996,-47.99992 -50.13325,-47.99992 h -59.73324 z m 23.46663,-74.66654 v -53.33325 h 36.26661 c 14.93331,0 26.66662,11.73331 26.66662,26.66662 0,14.93331 -11.73331,26.66663 -26.66662,26.66663 z" />
    <path
       id="path1971"
       d="m 801.4676,253.89584 h 21.33329 V 104.56275 H 801.4676 Z" />
    <path
       id="path1973"
       d="m 905.46742,253.89584 h 21.3333 v -65.06656 c 0,-22.39996 -17.06664,-39.4666 -42.6666,-39.4666 -13.65331,0 -23.46663,4.69332 -30.29328,9.59998 -4.05333,2.77333 -7.46666,5.97333 -10.23999,9.59999 l 13.86665,13.86664 c 2.13333,-2.55999 4.47999,-4.90666 7.25332,-6.82665 4.90666,-3.41333 11.09331,-7.03999 19.4133,-7.03999 12.79998,0 21.3333,8.31998 21.3333,19.19997 l -37.33327,6.39999 c -18.13331,3.19999 -29.86662,14.93331 -29.86662,31.99994 0,15.99998 13.65331,29.86662 34.13328,29.86662 11.09331,0 19.19997,-4.26666 24.95996,-8.53332 3.19999,-2.55999 5.97332,-5.33332 8.10665,-8.53332 z m 0,-45.86659 c 0,17.06664 -12.79998,29.86662 -28.79995,29.86662 -10.87999,0 -17.06664,-6.39999 -17.06664,-13.86665 0,-6.61332 5.11999,-11.94664 15.99997,-13.86664 l 29.86662,-5.33332 z" />
    <path
       id="path1975"
       d="m 957.15065,221.89589 c 0,22.39997 11.51998,34.13328 31.99995,34.13328 4.90666,0 8.74665,-0.64 11.52,-1.49333 l 4.48,-1.70666 v -20.26664 l -3.4134,1.70667 c -2.34662,0.85333 -5.11995,1.49333 -8.31994,1.49333 -10.02665,0 -14.93331,-5.33333 -14.93331,-15.99998 v -47.99992 h 23.46665 v -20.26663 h -23.46665 v -34.13328 h -19.19997 v 22.39996 c 0,8.53332 -2.98666,11.73332 -9.59999,11.73332 h -11.73331 v 20.26663 h 19.19997 z" />
    <path
       id="path1977"
       d="m 1030.1172,253.89584 h 21.3333 v -82.1332 h 24.5333 v -20.26663 h -24.5333 v -12.79998 c 0,-10.66665 4.9066,-15.99998 14.9333,-15.99998 3.2,0 5.9733,0.85334 8.32,1.70667 l 3.4133,1.49333 v -20.26664 c -1.4933,-0.42666 -2.9867,-0.85333 -4.48,-1.49333 -2.7733,-0.85333 -6.6133,-1.70666 -11.52,-1.70666 -20.48,0 -31.9999,11.73331 -31.9999,34.13328 v 14.93331 h -16 v 20.26663 h 16 z" />
    <path
       id="path1979"
       d="m 1082.8338,202.69593 c 0,29.86661 23.4666,53.33324 53.3332,53.33324 29.8666,0 53.3333,-23.46663 53.3333,-53.33324 0,-29.86662 -23.4667,-53.33325 -53.3333,-53.33325 -29.8666,0 -53.3332,23.46663 -53.3332,53.33325 z m 53.3332,33.06661 c -18.1333,0 -31.9999,-13.65331 -31.9999,-33.06661 0,-19.41331 13.8666,-33.06662 31.9999,-33.06662 18.1333,0 32,13.65331 32,33.06662 0,19.4133 -13.8667,33.06661 -32,33.06661 z" />
    <path
       id="path1981"
       d="m 1204.9835,253.89584 h 21.3333 v -52.26658 c 0,-18.1333 13.0133,-30.93328 27.7333,-30.93328 2.3467,0 4.0533,0.42666 5.76,0.64 l 2.7733,0.42666 v -22.39996 h -5.3333 c -10.24,0 -17.92,4.05332 -23.04,8.10665 -2.9866,2.34666 -5.5466,5.11999 -7.8933,7.89332 v -13.86664 h -21.3333 z" />
    <path
       id="path1983"
       d="m 1273.6501,253.89584 h 21.3333 V 197.3626 c 0,-17.06664 10.6666,-27.73329 24.5333,-27.73329 11.9466,0 21.3333,8.31999 21.3333,23.46663 v 60.7999 h 21.3333 V 197.3626 c 0,-17.06664 10.6666,-27.73329 24.5333,-27.73329 11.9466,0 21.3333,8.31999 21.3333,23.46663 v 60.7999 h 21.3333 v -60.7999 c 0,-26.66662 -17.0667,-43.73326 -37.3333,-43.73326 -12.8,0 -21.5466,4.26666 -27.3066,8.53332 -3.2,2.55999 -5.9734,5.33332 -7.8934,8.53332 -2.1333,-3.2 -4.6933,-5.97333 -7.6799,-8.53332 -5.12,-4.26666 -13.2267,-8.53332 -24.32,-8.53332 -10.88,0 -18.1333,4.26666 -23.04,8.53332 -2.7733,2.55999 -5.12,5.33332 -6.8266,8.53332 v -14.93331 h -21.3333 z" />
    <path
       id="path1985"
       d="m 1492.3331,194.16261 c 0,36.2666 25.5999,61.86656 62.9332,61.86656 37.3333,0 62.9332,-25.59996 62.9332,-61.86656 v -89.59986 h -23.4666 v 89.59986 c 0,22.39996 -18.1333,40.53326 -39.4666,40.53326 -22.4,0 -39.4666,-17.06664 -39.4666,-40.53326 v -89.59986 h -23.4666 z" />
    <path
       id="path1987"
       d="m 1650.6328,253.89584 h 23.4666 V 104.56275 h -23.4666 z" />
  </g>
</svg>
