
<svg viewBox="0 0 37 24" version="1.1" fill="none" stroke-width="3" stroke="#FFA500" stroke-linecap="round" stroke-linejoin="round" 
xmlns="http://www.w3.org/2000/svg" xmlns:xlink="http://www.w3.org/1999/xlink">


<g>
<path d="M 9 14 v-8.8"></path>
<ellipse cx="5.5" cy="14" rx="3.5" ry="4"></ellipse>
</g>

<g>
<path d="M 14 10 14 18"></path>
<path d="M 14 18 22 10"></path>
<path d="M 22 10 22 18"></path>
<path d="M 22 18 30 10"></path>
<path d="M 14 10 14 18" stroke="#404040" stroke-width="1.8"></path>
<path d="M 14 18 22 10" stroke="#404040" stroke-width="1.8"></path>
<path d="M 22 10 22 18" stroke="#404040" stroke-width="1.8"></path>
<path d="M 22 18 30 10" stroke="#404040" stroke-width="1.8"></path>
</g>

<g>
<path d="M 34.5 18 v-8"></path>
<path d="M 34.5 18 v-8" stroke="#404040" stroke-width="1.8"></path>
<line x1="34.5" y1="5.3" x2="34.5" y2="5.3" stroke-width="3.5"></line>
<line x1="34.5" y1="5.3" x2="34.5" y2="5.3" stroke="#404040" stroke-width="2.3"></line>
</g>

<g>
<path d="M 9 14 v-8.8" stroke="#404040" stroke-width="1.8"></path>
</g>

<g>
<ellipse cx="5.5" cy="14" rx="3.5" ry="4" stroke="#FFFFFF" stroke-width="1.8"></ellipse>
</g>

<g>
<path d="M 19.5 12.5 22 10" stroke="#FFFFFF" stroke-width="1.8"></path>
<path d="M 22 10 22 18" stroke="#FFFFFF" stroke-width="1.8"></path>
</g>

</svg>